<svg class="icon" style="width: 1em; height: 1em;vertical-align: middle;fill: currentColor;overflow: hidden;" viewBox="0 0 1024 1024" version="1.1" xmlns="http://www.w3.org/2000/svg" p-id="2987"><path d="M880.736 283.408C861.408 219.392 757.856 16 537.568 16 258.208 16 21.872 296.128 64.736 768h720.08c3.552-130.704-41.296-312.4-114.496-402.128 53.808 25.424 59.936 28 114.496 36.56" fill="#F73B2F" p-id="2988"></path><path d="M672 368c71.472 125.968 104.784 260.16 112 400H112c438.16 17.104 627.552-114.592 560-400z" fill="#D23228" p-id="2989"></path><path d="M816 816c0-12.736-5.056-24.944-14.064-33.936A47.936 47.936 0 0 0 768 768H64c-12.736 0-24.944 5.056-33.936 14.064A47.936 47.936 0 0 0 16 816v144c0 12.736 5.056 24.944 14.064 33.936A47.936 47.936 0 0 0 64 1008h704c12.736 0 24.944-5.056 33.936-14.064A47.936 47.936 0 0 0 816 960v-144z" fill="#F2EADB" p-id="2990"></path><path d="M798.224 784C814.176 969.92 381.888 1016.496 16 1008h736a63.92 63.92 0 0 0 45.248-18.752A63.92 63.92 0 0 0 816 944v-112" fill="#CEC7BA" p-id="2991"></path><path d="M885.168 526.912C828.4 522 784 474.144 784 416c0-61.808 50.192-112 112-112a108 108 0 0 1 58.832 17.088L944 320c-61.808 0-112 50.192-112 112a111.008 111.008 0 0 0 53.168 94.912z" fill="#FFFFFF" p-id="2992"></path><path d="M954.832 321.088A111.008 111.008 0 0 1 1008 416c0 61.808-50.192 112-112 112l-10.832-1.088A111.008 111.008 0 0 1 832 432c0-61.808 50.192-112 112-112l10.832 1.088z" fill="#F2EADB" p-id="2993"></path></svg>